/vscmnt/brussel_pixiu_data/_data_brussel/112/vsc11236/PredSimResults/SUBJ11opt3D/weighted-expIG/worker_01.mot
version=1
nRows=4
nColumns=50
inDegrees=yes
endheader
                time	         pelvis_tilt	         pelvis_list	     pelvis_rotation	           pelvis_tx	           pelvis_ty	           pelvis_tz	       hip_flexion_r	     hip_adduction_r	      hip_rotation_r	        knee_angle_r	       ankle_angle_r	         mtp_angle_r	       hip_flexion_l	     hip_adduction_l	      hip_rotation_l	        knee_angle_l	       ankle_angle_l	         mtp_angle_l	    lumbar_extension	      lumbar_bending	     lumbar_rotation	 ercspn_r/activation	 intobl_r/activation	 extobl_r/activation	    abd_r/activation	    add_r/activation	hamstrings_r/activation	bifemsh_r/activation	glut_max_r/activation	iliopsoas_r/activation	rect_fem_r/activation	  vasti_r/activation	gastroc_r/activation	 soleus_r/activation	tib_ant_r/activation	 ercspn_l/activation	 intobl_l/activation	 extobl_l/activation	    abd_l/activation	    add_l/activation	hamstrings_l/activation	bifemsh_l/activation	glut_max_l/activation	iliopsoas_l/activation	rect_fem_l/activation	  vasti_l/activation	gastroc_l/activation	 soleus_l/activation	tib_ant_l/activation	
          1.33853769	         -3.03093388	         -1.09758112	          5.29512835	          1.47239146	          0.93988063	         -0.00499584	         31.04173625	         -1.87713022	         -4.73285803	         -9.45805511	          1.64866736	          0.26341293	        -14.43542406	         -3.16004247	         -2.16109774	        -11.19969034	         12.49170768	         29.26674582	        -14.44139261	         -1.94743648	         -3.33871334	          0.02935672	          0.23645961	          0.06125359	          0.00999999	          0.23484004	          0.03356837	          0.16261029	          0.09001599	          0.09470898	          0.03745047	          0.01381922	          0.00999999	          0.00999999	          0.41729407	          0.01000001	          0.00999999	          0.00999999	          0.03774405	          0.05710624	          0.01525112	          0.23333874	          0.02237858	          0.21628887	          0.01000024	          0.01000000	          0.15242470	          0.31615490	          0.01483226	
          1.35192307	         -3.13647972	         -1.15269283	          5.47339964	          1.49093820	          0.93781946	         -0.00398935	         30.88954260	         -1.75380508	         -4.74991469	        -10.89777055	          1.14109929	          0.21319817	        -15.04076794	         -3.42255349	         -2.41077129	        -11.86386552	         11.63528051	         31.08355551	        -14.01929490	         -1.42788122	         -3.54074179	          0.02400210	          0.19332976	          0.05008104	          0.02986975	          0.19200559	          0.05103902	          0.13295043	          0.12147414	          0.07743421	          0.03061957	          0.01129862	          0.01223089	          0.01223088	          0.46613931	          0.01915710	          0.00999999	          0.01223087	          0.03085959	          0.04669016	          0.02408789	          0.19077814	          0.01829677	          0.17683813	          0.01000000	          0.01000000	          0.12462268	          0.29323254	          0.01212688	
          1.36530844	         -3.22244656	         -1.21100982	          5.62492800	          1.50977532	          0.93616117	         -0.00290672	         30.67141183	         -1.64467863	         -4.82915393	        -12.30218595	          0.56231246	          0.20169225	        -15.48781525	         -3.69977108	         -2.67757038	        -12.84133145	         10.61323376	         32.97397413	        -13.57606272	         -0.90223179	         -3.73220600	          0.02961854	          0.15806672	          0.04094633	          0.08452575	          0.23510012	          0.04516239	          0.10870049	          0.13449663	          0.06331033	          0.02503461	          0.00999999	          0.01000000	          0.00999999	          0.53139408	          0.03016224	          0.00999999	          0.00999999	          0.02523085	          0.03817395	          0.01969430	          0.15598051	          0.01495947	          0.17434586	          0.01000002	          0.01000000	          0.10189170	          0.26625629	          0.00999999	
          1.37869382	         -3.28844043	         -1.25490612	          5.74514434	          1.52862603	          0.93507053	         -0.00174589	         30.51325695	         -1.56125995	         -4.99074801	        -13.82040429	         -0.09007734	          0.15955226	        -15.68810576	         -3.97401507	         -2.95456117	        -14.25010551	          9.40559047	         34.92361973	        -13.14584202	         -0.39267241	         -3.90788922	          0.03651402	          0.12923560	          0.03347779	          0.11685097	          0.29385425	          0.04342379	          0.08887369	          0.13603431	          0.05176263	          0.02046834	          0.04351251	          0.00999999	          0.00999999	          0.57618578	          0.06099671	          0.00999999	          0.00999999	          0.02062878	          0.07183220	          0.01690040	          0.12752992	          0.01223089	          0.14254552	          0.01000000	          0.01000000	          0.08330681	          0.23330032	          0.00999999	
